ply
format ascii 1.0
comment created by platoply
element vertex 256
property float32 x
property float32 y
property float32 z
element face 450
property list uint8 int32 vertex_indices
end_header
0 0 0
1 0 0
2 0 0
3 0 0
4 0 0
5 0 0
6 0 0
7 0 0
8 0 0
9 0 0
10 0 0
11 0 0
12 0 0
13 0 0
14 0 0
15 0 0
0 1 0
1 1 0
2 1 0
3 1 0
4 1 0
5 1 0
6 1 0
7 1 0
8 1 0
9 1 0
10 1 0
11 1 0
12 1 0
13 1 0
14 1 0
15 1 0
0 2 0
1 2 0
2 2 0
3 2 0
4 2 0
5 2 0
6 2 0
7 2 0
8 2 0
9 2 0
10 2 0
11 2 0
12 2 0
13 2 0
14 2 0
15 2 0
0 3 0
1 3 0
2 3 0
3 3 0
4 3 0
5 3 0
6 3 0
7 3 0
8 3 0
9 3 0
10 3 0
11 3 0
12 3 0
13 3 0
14 3 0
15 3 0
0 4 0
1 4 0
2 4 0
3 4 0
4 4 0
5 4 0
6 4 0
7 4 0
8 4 0
9 4 0
10 4 0
11 4 0
12 4 0
13 4 0
14 4 0
15 4 0
0 5 0
1 5 0
2 5 0
3 5 0
4 5 0
5 5 0
6 5 0
7 5 0
8 5 0
9 5 0
10 5 0
11 5 0
12 5 0
13 5 0
14 5 0
15 5 0
0 6 0
1 6 0
2 6 0
3 6 0
4 6 0
5 6 0
6 6 0
7 6 0
8 6 0
9 6 0
10 6 0
11 6 0
12 6 0
13 6 0
14 6 0
15 6 0
0 7 0
1 7 0
2 7 0
3 7 0
4 7 0
5 7 0
6 7 0
7 7 0
8 7 0
9 7 0
10 7 0
11 7 0
12 7 0
13 7 0
14 7 0
15 7 0
0 8 0
1 8 0
2 8 0
3 8 0
4 8 0
5 8 0
6 8 0
7 8 0
8 8 0
9 8 0
10 8 0
11 8 0
12 8 0
13 8 0
14 8 0
15 8 0
0 9 0
1 9 0
2 9 0
3 9 0
4 9 0
5 9 0
6 9 0
7 9 0
8 9 0
9 9 0
10 9 0
11 9 0
12 9 0
13 9 0
14 9 0
15 9 0
0 10 0
1 10 0
2 10 0
3 10 0
4 10 0
5 10 0
6 10 0
7 10 0
8 10 0
9 10 0
10 10 0
11 10 0
12 10 0
13 10 0
14 10 0
15 10 0
0 11 0
1 11 0
2 11 0
3 11 0
4 11 0
5 11 0
6 11 0
7 11 0
8 11 0
9 11 0
10 11 0
11 11 0
12 11 0
13 11 0
14 11 0
15 11 0
0 12 0
1 12 0
2 12 0
3 12 0
4 12 0
5 12 0
6 12 0
7 12 0
8 12 0
9 12 0
10 12 0
11 12 0
12 12 0
13 12 0
14 12 0
15 12 0
0 13 0
1 13 0
2 13 0
3 13 0
4 13 0
5 13 0
6 13 0
7 13 0
8 13 0
9 13 0
10 13 0
11 13 0
12 13 0
13 13 0
14 13 0
15 13 0
0 14 0
1 14 0
2 14 0
3 14 0
4 14 0
5 14 0
6 14 0
7 14 0
8 14 0
9 14 0
10 14 0
11 14 0
12 14 0
13 14 0
14 14 0
15 14 0
0 15 0
1 15 0
2 15 0
3 15 0
4 15 0
5 15 0
6 15 0
7 15 0
8 15 0
9 15 0
10 15 0
11 15 0
12 15 0
13 15 0
14 15 0
15 15 0
3 1 18 2
3 1 17 18
3 2 19 3
3 2 18 19
3 3 20 4
3 3 19 20
3 4 21 5
3 4 20 21
3 5 22 6
3 5 21 22
3 6 23 7
3 6 22 23
3 7 24 8
3 7 23 24
3 8 25 9
3 8 24 25
3 9 26 10
3 9 25 26
3 10 27 11
3 10 26 27
3 11 28 12
3 11 27 28
3 12 29 13
3 12 28 29
3 13 30 14
3 13 29 30
3 14 31 15
3 14 30 31
3 15 32 16
3 15 31 32
3 17 34 18
3 17 33 34
3 18 35 19
3 18 34 35
3 19 36 20
3 19 35 36
3 20 37 21
3 20 36 37
3 21 38 22
3 21 37 38
3 22 39 23
3 22 38 39
3 23 40 24
3 23 39 40
3 24 41 25
3 24 40 41
3 25 42 26
3 25 41 42
3 26 43 27
3 26 42 43
3 27 44 28
3 27 43 44
3 28 45 29
3 28 44 45
3 29 46 30
3 29 45 46
3 30 47 31
3 30 46 47
3 31 48 32
3 31 47 48
3 33 50 34
3 33 49 50
3 34 51 35
3 34 50 51
3 35 52 36
3 35 51 52
3 36 53 37
3 36 52 53
3 37 54 38
3 37 53 54
3 38 55 39
3 38 54 55
3 39 56 40
3 39 55 56
3 40 57 41
3 40 56 57
3 41 58 42
3 41 57 58
3 42 59 43
3 42 58 59
3 43 60 44
3 43 59 60
3 44 61 45
3 44 60 61
3 45 62 46
3 45 61 62
3 46 63 47
3 46 62 63
3 47 64 48
3 47 63 64
3 49 66 50
3 49 65 66
3 50 67 51
3 50 66 67
3 51 68 52
3 51 67 68
3 52 69 53
3 52 68 69
3 53 70 54
3 53 69 70
3 54 71 55
3 54 70 71
3 55 72 56
3 55 71 72
3 56 73 57
3 56 72 73
3 57 74 58
3 57 73 74
3 58 75 59
3 58 74 75
3 59 76 60
3 59 75 76
3 60 77 61
3 60 76 77
3 61 78 62
3 61 77 78
3 62 79 63
3 62 78 79
3 63 80 64
3 63 79 80
3 65 82 66
3 65 81 82
3 66 83 67
3 66 82 83
3 67 84 68
3 67 83 84
3 68 85 69
3 68 84 85
3 69 86 70
3 69 85 86
3 70 87 71
3 70 86 87
3 71 88 72
3 71 87 88
3 72 89 73
3 72 88 89
3 73 90 74
3 73 89 90
3 74 91 75
3 74 90 91
3 75 92 76
3 75 91 92
3 76 93 77
3 76 92 93
3 77 94 78
3 77 93 94
3 78 95 79
3 78 94 95
3 79 96 80
3 79 95 96
3 81 98 82
3 81 97 98
3 82 99 83
3 82 98 99
3 83 100 84
3 83 99 100
3 84 101 85
3 84 100 101
3 85 102 86
3 85 101 102
3 86 103 87
3 86 102 103
3 87 104 88
3 87 103 104
3 88 105 89
3 88 104 105
3 89 106 90
3 89 105 106
3 90 107 91
3 90 106 107
3 91 108 92
3 91 107 108
3 92 109 93
3 92 108 109
3 93 110 94
3 93 109 110
3 94 111 95
3 94 110 111
3 95 112 96
3 95 111 112
3 97 114 98
3 97 113 114
3 98 115 99
3 98 114 115
3 99 116 100
3 99 115 116
3 100 117 101
3 100 116 117
3 101 118 102
3 101 117 118
3 102 119 103
3 102 118 119
3 103 120 104
3 103 119 120
3 104 121 105
3 104 120 121
3 105 122 106
3 105 121 122
3 106 123 107
3 106 122 123
3 107 124 108
3 107 123 124
3 108 125 109
3 108 124 125
3 109 126 110
3 109 125 126
3 110 127 111
3 110 126 127
3 111 128 112
3 111 127 128
3 113 130 114
3 113 129 130
3 114 131 115
3 114 130 131
3 115 132 116
3 115 131 132
3 116 133 117
3 116 132 133
3 117 134 118
3 117 133 134
3 118 135 119
3 118 134 135
3 119 136 120
3 119 135 136
3 120 137 121
3 120 136 137
3 121 138 122
3 121 137 138
3 122 139 123
3 122 138 139
3 123 140 124
3 123 139 140
3 124 141 125
3 124 140 141
3 125 142 126
3 125 141 142
3 126 143 127
3 126 142 143
3 127 144 128
3 127 143 144
3 129 146 130
3 129 145 146
3 130 147 131
3 130 146 147
3 131 148 132
3 131 147 148
3 132 149 133
3 132 148 149
3 133 150 134
3 133 149 150
3 134 151 135
3 134 150 151
3 135 152 136
3 135 151 152
3 136 153 137
3 136 152 153
3 137 154 138
3 137 153 154
3 138 155 139
3 138 154 155
3 139 156 140
3 139 155 156
3 140 157 141
3 140 156 157
3 141 158 142
3 141 157 158
3 142 159 143
3 142 158 159
3 143 160 144
3 143 159 160
3 145 162 146
3 145 161 162
3 146 163 147
3 146 162 163
3 147 164 148
3 147 163 164
3 148 165 149
3 148 164 165
3 149 166 150
3 149 165 166
3 150 167 151
3 150 166 167
3 151 168 152
3 151 167 168
3 152 169 153
3 152 168 169
3 153 170 154
3 153 169 170
3 154 171 155
3 154 170 171
3 155 172 156
3 155 171 172
3 156 173 157
3 156 172 173
3 157 174 158
3 157 173 174
3 158 175 159
3 158 174 175
3 159 176 160
3 159 175 176
3 161 178 162
3 161 177 178
3 162 179 163
3 162 178 179
3 163 180 164
3 163 179 180
3 164 181 165
3 164 180 181
3 165 182 166
3 165 181 182
3 166 183 167
3 166 182 183
3 167 184 168
3 167 183 184
3 168 185 169
3 168 184 185
3 169 186 170
3 169 185 186
3 170 187 171
3 170 186 187
3 171 188 172
3 171 187 188
3 172 189 173
3 172 188 189
3 173 190 174
3 173 189 190
3 174 191 175
3 174 190 191
3 175 192 176
3 175 191 192
3 177 194 178
3 177 193 194
3 178 195 179
3 178 194 195
3 179 196 180
3 179 195 196
3 180 197 181
3 180 196 197
3 181 198 182
3 181 197 198
3 182 199 183
3 182 198 199
3 183 200 184
3 183 199 200
3 184 201 185
3 184 200 201
3 185 202 186
3 185 201 202
3 186 203 187
3 186 202 203
3 187 204 188
3 187 203 204
3 188 205 189
3 188 204 205
3 189 206 190
3 189 205 206
3 190 207 191
3 190 206 207
3 191 208 192
3 191 207 208
3 193 210 194
3 193 209 210
3 194 211 195
3 194 210 211
3 195 212 196
3 195 211 212
3 196 213 197
3 196 212 213
3 197 214 198
3 197 213 214
3 198 215 199
3 198 214 215
3 199 216 200
3 199 215 216
3 200 217 201
3 200 216 217
3 201 218 202
3 201 217 218
3 202 219 203
3 202 218 219
3 203 220 204
3 203 219 220
3 204 221 205
3 204 220 221
3 205 222 206
3 205 221 222
3 206 223 207
3 206 222 223
3 207 224 208
3 207 223 224
3 209 226 210
3 209 225 226
3 210 227 211
3 210 226 227
3 211 228 212
3 211 227 228
3 212 229 213
3 212 228 229
3 213 230 214
3 213 229 230
3 214 231 215
3 214 230 231
3 215 232 216
3 215 231 232
3 216 233 217
3 216 232 233
3 217 234 218
3 217 233 234
3 218 235 219
3 218 234 235
3 219 236 220
3 219 235 236
3 220 237 221
3 220 236 237
3 221 238 222
3 221 237 238
3 222 239 223
3 222 238 239
3 223 240 224
3 223 239 240
3 225 242 226
3 225 241 242
3 226 243 227
3 226 242 243
3 227 244 228
3 227 243 244
3 228 245 229
3 228 244 245
3 229 246 230
3 229 245 246
3 230 247 231
3 230 246 247
3 231 248 232
3 231 247 248
3 232 249 233
3 232 248 249
3 233 250 234
3 233 249 250
3 234 251 235
3 234 250 251
3 235 252 236
3 235 251 252
3 236 253 237
3 236 252 253
3 237 254 238
3 237 253 254
3 238 255 239
3 238 254 255
3 239 256 240
3 239 255 256
